<?xml version="1.0" standalone="no"?><!DOCTYPE svg PUBLIC "-//W3C//DTD SVG 1.1//EN" "http://www.w3.org/Graphics/SVG/1.1/DTD/svg11.dtd"><svg t="1604841080852" class="icon" viewBox="0 0 1024 1024" version="1.1" xmlns="http://www.w3.org/2000/svg" p-id="1559" xmlns:xlink="http://www.w3.org/1999/xlink" width="200" height="200"><defs><style type="text/css"></style></defs><path d="M 795.5 855.28 v 50 c 0 -56.55 -130.32 -102.57 -290.5 -102.57 c -36.78 0 -71.98 2.43 -104.4 6.85 v -50 c 32.41 -4.42 67.62 -6.85 104.4 -6.85 c 160.18 -0.01 290.5 46.01 290.5 102.57" fill="#780009" p-id="1560"></path><path d="M 400.6 759.55 v 50 c -39.94 5.45 -75.65 13.93 -104.84 24.64 v -50 c 29.19 -10.71 64.9 -19.19 104.84 -24.64" fill="#7c000a" p-id="1561"></path><path d="M 295.76 784.19 v 50 c -17.55 6.44 -32.74 13.68 -45.09 21.55 v -50 c 12.34 -7.87 27.54 -15.11 45.09 -21.55" fill="#81000a" p-id="1562"></path><path d="M 250.67 805.75 v 50 c -10.06 6.41 -18.22 13.24 -24.24 20.4 v -50 c 6.01 -7.16 14.18 -13.99 24.24 -20.4" fill="#85000a" p-id="1563"></path><path d="M 226.43 826.14 v 50 c -7.04 8.38 -11.12 17.2 -11.83 26.31 v -50 c 0.71 -9.11 4.79 -17.93 11.83 -26.31" fill="#8a000b" p-id="1564"></path><path d="M 214.6 852.45 v 50 c -0.07 0.94 -0.11 1.88 -0.11 2.82 v -50 c 0.01 -0.94 0.04 -1.88 0.11 -2.82" fill="#85000a" p-id="1565"></path><path d="M 609.39 951.01 v 50 c -32.41 4.42 -67.62 6.85 -104.39 6.85 c -160.18 0 -290.5 -46.02 -290.5 -102.58 v -50 c 0 56.56 130.32 102.58 290.5 102.58 c 36.78 0 71.98 -2.43 104.39 -6.85" fill="#780009" p-id="1566"></path><path d="M 609.39 951.01 v 50 c -32.41 4.42 -67.62 6.85 -104.39 6.85 c -160.18 0 -290.5 -46.02 -290.5 -102.58 v -50 c 0 56.56 130.32 102.58 290.5 102.58 c 36.78 0 71.98 -2.43 104.39 -6.85" fill="#780009" p-id="1567"></path><path d="M 795.5 855.28 v 50 c 0 0.94 -0.04 1.88 -0.11 2.82 v -50 c 0.07 -0.94 0.11 -1.88 0.11 -2.82" fill="#85000a" p-id="1568"></path><path d="M 795.39 858.1 v 50 c -0.7 9.12 -4.79 17.94 -11.83 26.32 v -50 c 7.05 -8.38 11.13 -17.21 11.83 -26.32" fill="#8a000b" p-id="1569"></path><path d="M 783.56 884.42 v 50 c -6.01 7.15 -14.18 13.99 -24.24 20.4 v -50 c 10.06 -6.42 18.23 -13.25 24.24 -20.4" fill="#85000a" p-id="1570"></path><path d="M 759.33 904.81 v 50 c -12.35 7.87 -27.54 15.12 -45.09 21.55 v -50 c 17.54 -6.43 32.74 -13.67 45.09 -21.55" fill="#81000a" p-id="1571"></path><path d="M 714.24 926.37 v 50 c -29.19 10.71 -64.9 19.19 -104.84 24.64 v -50 c 39.94 -5.45 75.64 -13.93 104.84 -24.64" fill="#7c000a" p-id="1572"></path><path d="M 609.39 951.01 v 50 c -32.41 4.42 -67.62 6.85 -104.39 6.85 c -160.18 0 -290.5 -46.02 -290.5 -102.58 v -50 c 0 56.56 130.32 102.58 290.5 102.58 c 36.78 0 71.98 -2.43 104.39 -6.85" fill="#780009" p-id="1573"></path><path d="M 505 752.7 c 160.18 0 290.5 46.02 290.5 102.57 c 0 56.56 -130.32 102.58 -290.5 102.58 s -290.5 -46.02 -290.5 -102.58 c 0 -56.55 130.32 -102.57 290.5 -102.57 Z" fill="#d40011" p-id="1574"></path><path d="M 796.5 855.28 v 50 c 0 0.8 -0.03 1.61 -0.08 2.41 v -50 c 0.05 -0.81 0.08 -1.61 0.08 -2.41" fill="#85000a" p-id="1575"></path><path d="M 796.42 857.69 v 50 c -0.6 9.47 -4.76 18.72 -12.25 27.56 v -50 c 7.49 -8.85 11.65 -18.1 12.25 -27.56" fill="#8a000b" p-id="1576"></path><path d="M 784.17 885.24 v 50 c -5.95 7.03 -14 13.8 -24.05 20.21 v -50 c 10.05 -6.41 18.1 -13.18 24.05 -20.21" fill="#85000a" p-id="1577"></path><path d="M 760.12 905.46 v 50 c -12.22 7.81 -27.4 15.09 -45.31 21.67 v -50 c 17.92 -6.59 33.09 -13.87 45.31 -21.67" fill="#81000a" p-id="1578"></path><path d="M 714.81 927.13 v 50 c -1.27 0.47 -2.56 0.93 -3.86 1.39 c -29.21 10.34 -63.52 18.21 -100.93 23.32 v -50 c 37.41 -5.11 71.73 -12.99 100.93 -23.32 c 1.31 -0.46 2.59 -0.93 3.86 -1.39" fill="#7c000a" p-id="1579"></path><path d="M 610.02 951.84 v 50 c -33.06 4.52 -68.53 6.88 -105.02 6.88 c -77.79 0 -150.94 -10.73 -205.96 -30.2 c -55.16 -19.53 -85.55 -45.54 -85.55 -73.24 v -50 c 0 27.7 30.38 53.71 85.55 73.24 c 55.02 19.47 128.17 30.2 205.96 30.2 c 36.49 0 71.96 -2.36 105.02 -6.88" fill="#780009" p-id="1580"></path><path d="M 710.95 782.04 c 55.16 19.52 85.55 45.53 85.55 73.23 s -30.38 53.71 -85.55 73.24 c -55.02 19.47 -128.16 30.2 -205.96 30.2 c -77.79 0 -150.94 -10.73 -205.96 -30.2 c -55.16 -19.53 -85.55 -45.54 -85.55 -73.24 s 30.38 -53.71 85.55 -73.23 c 55.02 -19.48 128.17 -30.2 205.96 -30.2 c 77.8 0 150.95 10.72 205.96 30.2 Z M 505 957.86 c 160.18 0 290.5 -46.02 290.5 -102.58 c 0 -56.55 -130.32 -102.57 -290.5 -102.57 s -290.5 46.02 -290.5 102.57 c 0 56.56 130.32 102.58 290.5 102.58" fill="#d40011" p-id="1581"></path><path d="M 455.94 70.14 C 395.58 341.68 332.1 606.13 276.06 833.41 c 70.83 34.26 149.88 53.24 228.94 52.47 c 79.05 -0.39 158.1 -20.52 228.94 -55.72 c -55.72 -226.47 -118.8 -489.68 -178.83 -760.03 c -12.82 -55.11 -86.35 -55.12 -99.17 0.01 Z" fill="#e94a08" p-id="1582"></path><path d="M 636 424 c -8.51 8.33 -59.83 56.95 -138.5 53.35 C 428.58 474.2 385.11 433.09 375 423 l 45 -194 c 5.46 6.01 32.84 34.9 77.5 37.17 c 54.61 2.78 88.67 -36.58 92.5 -41.17 c 15.33 66.33 30.67 132.67 46 199 Z M 694 669 c -21.64 15.74 -90 61.25 -188.5 60.26 c -98.7 -1 -166.22 -48.08 -187.5 -64.26 c 8.67 -36.67 17.33 -73.33 26 -110 c 19.31 13.96 77.57 52.27 161.5 52.48 c 83.73 0.21 142.09 -37.63 161.5 -51.48 l 27 113 Z" fill="#f7f8f8" p-id="1583"></path></svg>